<svg xmlns="http://www.w3.org/2000/svg" viewBox="0 0 42.85 42.83"><defs><style>.cls-1{fill:#333;}</style></defs><g id="Layer_2" data-name="Layer 2"><g id="コンテンツ"><path class="cls-1" d="M42.83,33.8a2.07,2.07,0,0,1-.63,1.81l-6,6a3.34,3.34,0,0,1-1.06.77,4.48,4.48,0,0,1-1.29.41l-.28,0a4.58,4.58,0,0,1-.59,0,20.72,20.72,0,0,1-2.79-.3,21.45,21.45,0,0,1-4.71-1.45,39.74,39.74,0,0,1-6.33-3.47,47,47,0,0,1-7.53-6.35,50.12,50.12,0,0,1-5.27-6A42.11,42.11,0,0,1,3,20a27.42,27.42,0,0,1-1.91-4.4,23.48,23.48,0,0,1-.86-3.4A11.28,11.28,0,0,1,0,9.94c0-.55,0-.85,0-.91a4.44,4.44,0,0,1,.41-1.3,3.45,3.45,0,0,1,.77-1.06l6-6A2,2,0,0,1,8.72,0a1.66,1.66,0,0,1,1,.34,3.26,3.26,0,0,1,.77.84l4.86,9.21A2.22,2.22,0,0,1,15.61,12a2.77,2.77,0,0,1-.77,1.45l-2.22,2.22a.82.82,0,0,0-.16.3,1.28,1.28,0,0,0-.07.34,8.24,8.24,0,0,0,.82,2.17,19.49,19.49,0,0,0,1.68,2.66,29.23,29.23,0,0,0,3.22,3.6A29.15,29.15,0,0,0,21.74,28a20.88,20.88,0,0,0,2.65,1.7,7.42,7.42,0,0,0,1.64.66l.56.11a1,1,0,0,0,.3-.07.71.71,0,0,0,.29-.16l2.59-2.63a2.78,2.78,0,0,1,1.9-.72,2.39,2.39,0,0,1,1.23.27h0L41.7,32.3a2.27,2.27,0,0,1,1.13,1.5Z"/></g></g></svg>